<?xml version="1.0" encoding="UTF-8" standalone="no"?>
<!DOCTYPE svg PUBLIC "-//W3C//DTD SVG 1.1//EN"
 "http://www.w3.org/Graphics/SVG/1.1/DTD/svg11.dtd">
<!-- Generated by graphviz version 2.36.0 (20140111.2315)
 -->
<!-- Title: Sample Pages: 1 -->
<svg width="642pt" height="174pt"
 viewBox="0.00 0.00 642.50 174.00" xmlns="http://www.w3.org/2000/svg" xmlns:xlink="http://www.w3.org/1999/xlink">
<g id="graph0" class="graph" transform="scale(1 1) rotate(0) translate(4 170)">
<title>Sample</title>
<polygon fill="white" stroke="none" points="-4,4 -4,-170 638.5,-170 638.5,4 -4,4"/>
<!-- one branch&#45;&gt;a caterpillar -->
<g id="edge1" class="edge"><title>one branch&#45;&gt;a caterpillar</title>
<polygon fill="#9fb6cd" stroke="none" stroke-width="6" points="286.383,-117.527 289.905,-119.532 293.301,-121.464 296.576,-123.325 299.733,-125.116 302.776,-126.838 305.709,-128.493 308.536,-130.08 311.261,-131.603 313.888,-133.061 316.42,-134.457 318.861,-135.791 321.216,-137.065 323.488,-138.279 325.68,-139.435 327.798,-140.535 329.844,-141.579 331.822,-142.568 333.737,-143.504 335.592,-144.387 337.39,-145.22 337.39,-145.22 335.688,-144.206 333.938,-143.138 332.134,-142.012 330.274,-140.827 328.353,-139.581 326.367,-138.273 324.313,-136.902 322.186,-135.464 319.983,-133.959 317.7,-132.385 315.333,-130.741 312.878,-129.023 310.332,-127.232 307.69,-125.364 304.948,-123.42 302.103,-121.395 299.152,-119.29 296.089,-117.103 292.912,-114.831 289.617,-112.473 286.383,-117.527"/>
<polygon fill="none" stroke="#9fb6cd" stroke-width="6" points="337.745,-145.386 349.028,-144.876 346.8,-149.63 337.745,-145.386"/>
</g>
<!-- one branch&#45;&gt;a nest -->
<g id="edge2" class="edge"><title>one branch&#45;&gt;a nest</title>
<polygon fill="#9fb6cd" stroke="none" stroke-width="6" points="286.986,-117.823 292.698,-119.613 298.083,-121.296 303.157,-122.874 307.939,-124.347 312.442,-125.717 316.685,-126.984 320.683,-128.15 324.452,-129.215 328.009,-130.181 331.37,-131.047 334.552,-131.815 337.569,-132.486 340.438,-133.06 343.175,-133.539 345.796,-133.922 348.317,-134.212 350.753,-134.408 353.119,-134.513 355.433,-134.526 357.71,-134.45 357.71,-134.45 355.438,-134.338 353.144,-134.135 350.812,-133.838 348.424,-133.446 345.963,-132.955 343.414,-132.364 340.758,-131.67 337.98,-130.871 335.062,-129.965 331.987,-128.948 328.739,-127.818 325.302,-126.573 321.659,-125.211 317.794,-123.728 313.689,-122.123 309.33,-120.393 304.699,-118.536 299.78,-116.549 294.557,-114.43 289.014,-112.177 286.986,-117.823"/>
<polygon fill="none" stroke="#9fb6cd" stroke-width="6" points="357.785,-134.443 367.245,-128.273 367.74,-133.5 357.785,-134.443"/>
</g>
<!-- one branch&#45;&gt;sour apples -->
<g id="edge3" class="edge"><title>one branch&#45;&gt;sour apples</title>
<polygon fill="#9fb6cd" stroke="none" stroke-width="6" points="287.745,-117.989 294.944,-118.342 301.646,-118.663 307.881,-118.947 313.676,-119.187 319.061,-119.378 324.064,-119.515 328.713,-119.59 333.037,-119.598 337.065,-119.533 340.824,-119.389 344.343,-119.16 347.649,-118.84 350.77,-118.422 353.733,-117.901 356.566,-117.272 359.296,-116.529 361.951,-115.666 364.559,-114.679 367.149,-113.562 369.75,-112.31 369.75,-112.31 367.069,-113.369 364.418,-114.291 361.768,-115.08 359.091,-115.739 356.358,-116.275 353.538,-116.689 350.601,-116.988 347.518,-117.175 344.258,-117.254 340.791,-117.228 337.087,-117.101 333.116,-116.877 328.85,-116.559 324.258,-116.151 319.313,-115.656 313.984,-115.078 308.242,-114.421 302.06,-113.688 295.407,-112.884 288.255,-112.011 287.745,-117.989"/>
<polygon fill="none" stroke="#9fb6cd" stroke-width="6" points="370.025,-112.166 376.441,-102.871 378.88,-107.52 370.025,-112.166"/>
</g>
<!-- a nest&#45;&gt;birds -->
<g id="edge4" class="edge"><title>a nest&#45;&gt;birds</title>
<polygon fill="#9fb6cd" stroke="none" stroke-width="6" points="424.073,-131.41 428.244,-131.528 432.22,-131.635 436.008,-131.731 439.616,-131.814 443.052,-131.886 446.324,-131.944 449.441,-131.989 452.411,-132.021 455.241,-132.038 457.94,-132.041 460.517,-132.029 462.978,-132.001 465.333,-131.957 467.59,-131.897 469.756,-131.82 471.839,-131.726 473.848,-131.615 475.791,-131.485 477.675,-131.337 479.51,-131.17 479.51,-131.17 477.669,-131.138 475.783,-131.081 473.844,-131 471.842,-130.894 469.77,-130.763 467.62,-130.605 465.382,-130.422 463.049,-130.212 460.611,-129.974 458.062,-129.709 455.392,-129.416 452.594,-129.094 449.658,-128.743 446.576,-128.362 443.341,-127.951 439.944,-127.51 436.376,-127.038 432.63,-126.534 428.697,-125.998 424.567,-125.43 424.073,-131.41"/>
<polygon fill="none" stroke="#9fb6cd" stroke-width="6" points="479.783,-131.148 489.321,-125.098 489.75,-130.33 479.783,-131.148"/>
</g>
<!-- birds&#45;&gt;chirp -->
<g id="edge5" class="edge"><title>birds&#45;&gt;chirp</title>
<polygon fill="#9fb6cd" stroke="none" stroke-width="6" points="540.007,-130.227 542.265,-130.131 544.449,-130.037 546.559,-129.944 548.597,-129.853 550.567,-129.764 552.47,-129.675 554.309,-129.587 556.085,-129.5 557.801,-129.413 559.459,-129.327 561.061,-129.24 562.61,-129.154 564.108,-129.067 565.556,-128.979 566.958,-128.891 568.315,-128.801 569.63,-128.711 570.904,-128.619 572.14,-128.525 573.34,-128.43 573.34,-128.43 572.143,-128.309 570.911,-128.179 569.643,-128.042 568.336,-127.896 566.988,-127.741 565.596,-127.577 564.159,-127.404 562.674,-127.222 561.139,-127.03 559.551,-126.828 557.909,-126.617 556.21,-126.395 554.451,-126.163 552.631,-125.921 550.747,-125.668 548.798,-125.404 546.78,-125.128 544.691,-124.842 542.53,-124.543 540.293,-124.233 540.007,-130.227"/>
<polygon fill="none" stroke="#9fb6cd" stroke-width="6" points="573.351,-128.43 583.292,-123.07 583.35,-128.32 573.351,-128.43"/>
<text text-anchor="middle" x="564.15" y="-130.63" font-family="Regular" font-size="12.00" fill="darkslategray">singing</text>
</g>
<!-- trunk&#45;&gt;one branch -->
<g id="edge6" class="edge"><title>trunk&#45;&gt;one branch</title>
<polygon fill="#9fb6cd" stroke="none" stroke-width="6" points="139.596,-86.651 142.476,-87.9666 145.191,-89.2016 147.76,-90.3603 150.205,-91.4466 152.546,-92.4646 154.801,-93.418 156.992,-94.3106 159.138,-95.1458 161.258,-95.9274 163.37,-96.6587 165.496,-97.3434 167.653,-97.9852 169.86,-98.5881 172.139,-99.1561 174.507,-99.6934 176.986,-100.204 179.597,-100.693 182.359,-101.164 185.293,-101.622 188.42,-102.07 188.42,-102.07 185.369,-101.259 182.516,-100.462 179.841,-99.6747 177.326,-98.8895 174.951,-98.1006 172.696,-97.3017 170.542,-96.4864 168.468,-95.6485 166.455,-94.7814 164.482,-93.8783 162.528,-92.9326 160.572,-91.9371 158.593,-90.8848 156.571,-89.7688 154.485,-88.582 152.316,-87.3174 150.043,-85.9685 147.646,-84.5284 145.107,-82.9907 142.404,-81.349 139.596,-86.651"/>
<polygon fill="none" stroke="#9fb6cd" stroke-width="6" points="188.666,-102.115 199.453,-98.7672 198.5,-103.93 188.666,-102.115"/>
<text text-anchor="middle" x="157.5" y="-74.4" font-family="Regular" font-size="12.00" fill="darkslategray">grow</text>
</g>
<!-- trunk&#45;&gt;another branch -->
<g id="edge7" class="edge"><title>trunk&#45;&gt;another branch</title>
<polygon fill="#9fb6cd" stroke="none" stroke-width="6" points="141.865,-86.8726 143.895,-86.0621 145.834,-85.289 147.691,-84.5513 149.471,-83.8471 151.185,-83.1745 152.838,-82.5314 154.44,-81.916 155.998,-81.3261 157.52,-80.7598 159.015,-80.2151 160.489,-79.69 161.952,-79.1824 163.412,-78.6904 164.875,-78.2121 166.351,-77.7454 167.847,-77.2883 169.371,-76.8391 170.931,-76.3957 172.535,-75.9563 174.19,-75.519 174.19,-75.519 172.483,-75.6623 170.823,-75.8169 169.203,-75.9833 167.614,-76.1621 166.049,-76.3539 164.5,-76.5591 162.958,-76.7785 161.417,-77.0123 159.869,-77.2612 158.305,-77.5256 156.719,-77.8061 155.102,-78.1029 153.447,-78.4167 151.745,-78.7479 149.99,-79.0969 148.174,-79.4643 146.288,-79.8505 144.325,-80.2561 142.276,-80.6816 140.135,-81.1274 141.865,-86.8726"/>
<polygon fill="none" stroke="#9fb6cd" stroke-width="6" points="174.446,-75.4815 183.578,-68.8356 184.34,-74.03 174.446,-75.4815"/>
<text text-anchor="middle" x="157" y="-87.4" font-family="Regular" font-size="12.00" fill="darkslategray">graft</text>
</g>
<!-- another branch&#45;&gt;a snake -->
<g id="edge8" class="edge"><title>another branch&#45;&gt;a snake</title>
<polygon fill="#9fb6cd" stroke="none" stroke-width="6" points="302.272,-62.9877 306.35,-62.3914 310.25,-61.8224 313.976,-61.2808 317.536,-60.7669 320.935,-60.2806 324.18,-59.8224 327.277,-59.3923 330.231,-58.9905 333.05,-58.6172 335.739,-58.2726 338.305,-57.9568 340.753,-57.67 343.091,-57.4123 345.324,-57.1841 347.459,-56.9853 349.501,-56.8162 351.459,-56.6771 353.337,-56.568 355.142,-56.4892 356.88,-56.441 356.88,-56.441 355.145,-56.2998 353.338,-56.1816 351.453,-56.0855 349.484,-56.0108 347.425,-55.9565 345.27,-55.9218 343.014,-55.9058 340.65,-55.9078 338.173,-55.9268 335.576,-55.9619 332.854,-56.0124 330.001,-56.0773 327.011,-56.1557 323.877,-56.2469 320.594,-56.3499 317.156,-56.4638 313.556,-56.5879 309.789,-56.7213 305.848,-56.863 301.728,-57.0123 302.272,-62.9877"/>
<polygon fill="none" stroke="#9fb6cd" stroke-width="6" points="357.18,-56.4711 367.655,-52.2484 367.13,-57.472 357.18,-56.4711"/>
</g>
<!-- another branch&#45;&gt;sweet apples\ngreen apple\nred apple\n -->
<g id="edge9" class="edge"><title>another branch&#45;&gt;sweet apples\ngreen apple\nred apple\n</title>
<polygon fill="#9fb6cd" stroke="none" stroke-width="6" points="303.47,-62.6153 305.498,-61.2594 307.478,-59.9362 309.41,-58.6453 311.295,-57.3863 313.135,-56.1587 314.929,-54.962 316.68,-53.7958 318.388,-52.6597 320.053,-51.5531 321.678,-50.4757 323.263,-49.427 324.809,-48.4064 326.317,-47.4137 327.788,-46.4482 329.223,-45.5096 330.622,-44.5973 331.988,-43.711 333.32,-42.8502 334.621,-42.0143 335.89,-41.203 335.89,-41.203 334.511,-41.8094 333.097,-42.4356 331.646,-43.0816 330.159,-43.7479 328.634,-44.4346 327.07,-45.1422 325.466,-45.8708 323.821,-46.6207 322.134,-47.3922 320.404,-48.1855 318.631,-49.0011 316.812,-49.8391 314.948,-50.6998 313.037,-51.5835 311.078,-52.4905 309.07,-53.421 307.012,-54.3754 304.904,-55.354 302.743,-56.357 300.53,-57.3847 303.47,-62.6153"/>
<polygon fill="none" stroke="#9fb6cd" stroke-width="6" points="336.027,-41.1321 342.499,-31.8755 344.91,-36.539 336.027,-41.1321"/>
</g>
<!-- root&#45;&gt;trunk -->
<g id="edge10" class="edge"><title>root&#45;&gt;trunk</title>
<polygon fill="#9fb6cd" stroke="none" stroke-width="6" points="44.4191,-84.95 45.6342,-84.8374 46.8643,-84.7237 48.1145,-84.6083 49.3897,-84.4907 50.6948,-84.3706 52.0347,-84.2476 53.4142,-84.121 54.8384,-83.9906 56.3119,-83.8558 57.8397,-83.7163 59.4268,-83.5715 61.0779,-83.421 62.798,-83.2644 64.5919,-83.1012 66.4645,-82.931 68.4207,-82.7534 70.4653,-82.5678 72.6034,-82.3738 74.8396,-82.171 77.179,-81.959 77.179,-81.959 74.84,-81.7426 72.6041,-81.5359 70.4663,-81.3384 68.4219,-81.1495 66.4658,-80.969 64.5933,-80.7962 62.7994,-80.6309 61.0793,-80.4725 59.428,-80.3206 57.8408,-80.1747 56.3126,-80.0344 54.8386,-79.8993 53.414,-79.7689 52.0338,-79.6427 50.6931,-79.5204 49.3872,-79.4014 48.1111,-79.2853 46.8598,-79.1716 45.6287,-79.06 44.4129,-78.95 44.4191,-84.95"/>
<polygon fill="none" stroke="#9fb6cd" stroke-width="6" points="77.45,-81.9592 87.4557,-76.72 87.45,-81.97 77.45,-81.9592"/>
</g>
<!-- one branch -->
<g id="node1" class="node"><title>one branch</title>
<path fill="#fafafa" stroke="black" stroke-width="0.5" d="M280.167,-122C280.167,-122 205.833,-122 205.833,-122 202.167,-122 198.5,-118.333 198.5,-114.667 198.5,-114.667 198.5,-107.333 198.5,-107.333 198.5,-103.667 202.167,-100 205.833,-100 205.833,-100 280.167,-100 280.167,-100 283.833,-100 287.5,-103.667 287.5,-107.333 287.5,-107.333 287.5,-114.667 287.5,-114.667 287.5,-118.333 283.833,-122 280.167,-122"/>
<text text-anchor="middle" x="243" y="-107.6" font-family="Regular" font-size="13.00">one branch</text>
</g>
<!-- a caterpillar -->
<g id="node2" class="node"><title>a caterpillar</title>
<path fill="#fafafa" stroke="black" stroke-width="0.5" d="M437.667,-166C437.667,-166 354.333,-166 354.333,-166 350.667,-166 347,-162.333 347,-158.667 347,-158.667 347,-151.333 347,-151.333 347,-147.667 350.667,-144 354.333,-144 354.333,-144 437.667,-144 437.667,-144 441.333,-144 445,-147.667 445,-151.333 445,-151.333 445,-158.667 445,-158.667 445,-162.333 441.333,-166 437.667,-166"/>
<text text-anchor="middle" x="396" y="-151.6" font-family="Regular" font-size="13.00">a caterpillar</text>
</g>
<!-- a nest -->
<g id="node3" class="node"><title>a nest</title>
<path fill="#fafafa" stroke="black" stroke-width="0.5" d="M416.667,-137C416.667,-137 375.333,-137 375.333,-137 371.667,-137 368,-133.333 368,-129.667 368,-129.667 368,-122.333 368,-122.333 368,-118.667 371.667,-115 375.333,-115 375.333,-115 416.667,-115 416.667,-115 420.333,-115 424,-118.667 424,-122.333 424,-122.333 424,-129.667 424,-129.667 424,-133.333 420.333,-137 416.667,-137"/>
<text text-anchor="middle" x="396" y="-122.6" font-family="Regular" font-size="13.00">a nest</text>
</g>
<!-- sour apples -->
<g id="node4" class="node"><title>sour apples</title>
<path fill="#fafafa" stroke="black" stroke-width="0.5" d="M434.667,-108C434.667,-108 357.333,-108 357.333,-108 353.667,-108 350,-104.333 350,-100.667 350,-100.667 350,-93.3333 350,-93.3333 350,-89.6667 353.667,-86 357.333,-86 357.333,-86 434.667,-86 434.667,-86 438.333,-86 442,-89.6667 442,-93.3333 442,-93.3333 442,-100.667 442,-100.667 442,-104.333 438.333,-108 434.667,-108"/>
<text text-anchor="middle" x="396" y="-93.6" font-family="Regular" font-size="13.00">sour apples</text>
</g>
<!-- birds -->
<g id="node5" class="node"><title>birds</title>
<path fill="#fafafa" stroke="black" stroke-width="0.5" d="M532.667,-137C532.667,-137 497.333,-137 497.333,-137 493.667,-137 490,-133.333 490,-129.667 490,-129.667 490,-122.333 490,-122.333 490,-118.667 493.667,-115 497.333,-115 497.333,-115 532.667,-115 532.667,-115 536.333,-115 540,-118.667 540,-122.333 540,-122.333 540,-129.667 540,-129.667 540,-133.333 536.333,-137 532.667,-137"/>
<text text-anchor="middle" x="515" y="-122.6" font-family="Regular" font-size="13.00">birds</text>
</g>
<!-- chirp -->
<g id="node6" class="node"><title>chirp</title>
<path fill="#fafafa" stroke="black" stroke-width="0.5" d="M627.167,-137C627.167,-137 590.833,-137 590.833,-137 587.167,-137 583.5,-133.333 583.5,-129.667 583.5,-129.667 583.5,-122.333 583.5,-122.333 583.5,-118.667 587.167,-115 590.833,-115 590.833,-115 627.167,-115 627.167,-115 630.833,-115 634.5,-118.667 634.5,-122.333 634.5,-122.333 634.5,-129.667 634.5,-129.667 634.5,-133.333 630.833,-137 627.167,-137"/>
<text text-anchor="middle" x="609" y="-122.6" font-family="Regular" font-size="13.00">chirp</text>
</g>
<!-- trunk -->
<g id="node7" class="node"><title>trunk</title>
<path fill="#fafafa" stroke="black" stroke-width="0.5" d="M133.167,-93C133.167,-93 94.8333,-93 94.8333,-93 91.1667,-93 87.5,-89.3333 87.5,-85.6667 87.5,-85.6667 87.5,-78.3333 87.5,-78.3333 87.5,-74.6667 91.1667,-71 94.8333,-71 94.8333,-71 133.167,-71 133.167,-71 136.833,-71 140.5,-74.6667 140.5,-78.3333 140.5,-78.3333 140.5,-85.6667 140.5,-85.6667 140.5,-89.3333 136.833,-93 133.167,-93"/>
<text text-anchor="middle" x="114" y="-78.6" font-family="Regular" font-size="13.00">trunk</text>
</g>
<!-- another branch -->
<g id="node8" class="node"><title>another branch</title>
<path fill="#fafafa" stroke="black" stroke-width="0.5" d="M294.167,-79C294.167,-79 191.833,-79 191.833,-79 188.167,-79 184.5,-75.3333 184.5,-71.6667 184.5,-71.6667 184.5,-64.3333 184.5,-64.3333 184.5,-60.6667 188.167,-57 191.833,-57 191.833,-57 294.167,-57 294.167,-57 297.833,-57 301.5,-60.6667 301.5,-64.3333 301.5,-64.3333 301.5,-71.6667 301.5,-71.6667 301.5,-75.3333 297.833,-79 294.167,-79"/>
<text text-anchor="middle" x="243" y="-64.6" font-family="Regular" font-size="13.00">another branch</text>
</g>
<!-- a snake -->
<g id="node9" class="node"><title>a snake</title>
<path fill="#fafafa" stroke="black" stroke-width="0.5" d="M421.667,-79C421.667,-79 370.333,-79 370.333,-79 366.667,-79 363,-75.3333 363,-71.6667 363,-71.6667 363,-64.3333 363,-64.3333 363,-60.6667 366.667,-57 370.333,-57 370.333,-57 421.667,-57 421.667,-57 425.333,-57 429,-60.6667 429,-64.3333 429,-64.3333 429,-71.6667 429,-71.6667 429,-75.3333 425.333,-79 421.667,-79"/>
<text text-anchor="middle" x="396" y="-64.6" font-family="Regular" font-size="13.00">a snake</text>
</g>
<!-- sweet apples\ngreen apple\nred apple\n -->
<g id="node10" class="node"><title>sweet apples\ngreen apple\nred apple\n</title>
<path fill="#fafafa" stroke="black" stroke-width="0.5" d="M435,-50C435,-50 357,-50 357,-50 351,-50 345,-44 345,-38 345,-38 345,-12 345,-12 345,-6 351,-0 357,-0 357,-0 435,-0 435,-0 441,-0 447,-6 447,-12 447,-12 447,-38 447,-38 447,-44 441,-50 435,-50"/>
<text text-anchor="middle" x="396" y="-35.6" font-family="Regular" font-size="13.00">sweet apples</text>
<text text-anchor="middle" x="396" y="-21.6" font-family="Regular" font-size="13.00">green apple</text>
<text text-anchor="middle" x="396" y="-7.6" font-family="Regular" font-size="13.00">red apple</text>
</g>
<!-- root -->
<g id="node11" class="node"><title>root</title>
<path fill="#fafafa" stroke="black" stroke-width="0.5" d="M36.6667,-93C36.6667,-93 7.33333,-93 7.33333,-93 3.66667,-93 -1.11022e-15,-89.3333 -1.11022e-15,-85.6667 -1.11022e-15,-85.6667 -1.11022e-15,-78.3333 -1.11022e-15,-78.3333 -1.11022e-15,-74.6667 3.66667,-71 7.33333,-71 7.33333,-71 36.6667,-71 36.6667,-71 40.3333,-71 44,-74.6667 44,-78.3333 44,-78.3333 44,-85.6667 44,-85.6667 44,-89.3333 40.3333,-93 36.6667,-93"/>
<text text-anchor="middle" x="22" y="-78.6" font-family="Regular" font-size="13.00">root</text>
</g>
</g>
</svg>
