<?xml version="1.0" encoding="UTF-8" standalone="no"?>
<!DOCTYPE svg PUBLIC "-//W3C//DTD SVG 1.1//EN"
 "http://www.w3.org/Graphics/SVG/1.1/DTD/svg11.dtd">
<!-- Generated by graphviz version 2.36.0 (20140111.2315)
 -->
<!-- Title: Sample Pages: 1 -->
<svg width="450pt" height="383pt"
 viewBox="0.00 0.00 450.00 383.00" xmlns="http://www.w3.org/2000/svg" xmlns:xlink="http://www.w3.org/1999/xlink">
<g id="graph0" class="graph" transform="scale(1 1) rotate(0) translate(4 379)">
<title>Sample</title>
<polygon fill="white" stroke="none" points="-4,4 -4,-379 446,-379 446,4 -4,4"/>
<!-- one branch&#45;&gt;a caterpillar -->
<g id="edge1" class="edge"><title>one branch&#45;&gt;a caterpillar</title>
<path fill="none" stroke="black" d="M158,-152C95.778,-178.13 81.835,-183.98 65.253,-201.33"/>
<polygon fill="black" stroke="black" points="62.5014,-199.155 58.392,-208.92 67.6943,-203.849 62.5014,-199.155"/>
</g>
<!-- one branch&#45;&gt;a nest -->
<g id="edge2" class="edge"><title>one branch&#45;&gt;a nest</title>
<path fill="none" stroke="black" d="M158,-152C138.17,-176.77 132.91,-183.34 132.3,-198.68"/>
<polygon fill="black" stroke="black" points="128.803,-198.968 132.41,-208.93 135.802,-198.893 128.803,-198.968"/>
</g>
<!-- one branch&#45;&gt;sour apples -->
<g id="edge3" class="edge"><title>one branch&#45;&gt;sour apples</title>
<path fill="none" stroke="black" d="M158,-152C166.28,-178.48 167.97,-183.87 191.35,-202.53"/>
<polygon fill="black" stroke="black" points="189.307,-205.376 199.34,-208.78 193.62,-199.862 189.307,-205.376"/>
</g>
<!-- a nest&#45;&gt;birds -->
<g id="edge4" class="edge"><title>a nest&#45;&gt;birds</title>
<path fill="none" stroke="black" d="M130.24,-231.23C123.93,-257.1 122.28,-266.58 125.28,-278.24"/>
<polygon fill="black" stroke="black" points="122.015,-279.514 128.49,-287.9 128.658,-277.306 122.015,-279.514"/>
</g>
<!-- birds&#45;&gt;chirp -->
<g id="edge5" class="edge"><title>birds&#45;&gt;chirp</title>
<path fill="none" stroke="black" d="M131.27,-310.16C128.68,-327.11 127.59,-335.75 128,-342.85"/>
<polygon fill="black" stroke="black" points="124.588,-343.669 129.68,-352.96 131.493,-342.522 124.588,-343.669"/>
<text text-anchor="middle" x="108.41" y="-319.95" font-family="Times,serif" font-size="14.00">singing</text>
</g>
<!-- trunk&#45;&gt;one branch -->
<g id="edge6" class="edge"><title>trunk&#45;&gt;one branch</title>
<path fill="none" stroke="black" d="M243,-87C204.64,-93.674 198.33,-94.772 176.24,-121.79"/>
<polygon fill="black" stroke="black" points="173.444,-119.682 169.91,-129.67 178.901,-124.066 173.444,-119.682"/>
<text text-anchor="middle" x="186.59" y="-87.134" font-family="Times,serif" font-size="14.00">grow</text>
</g>
<!-- trunk&#45;&gt;another branch -->
<g id="edge7" class="edge"><title>trunk&#45;&gt;another branch</title>
<path fill="none" stroke="black" d="M243,-87C272.53,-98.101 278.74,-100.44 289.7,-120.6"/>
<polygon fill="black" stroke="black" points="286.671,-122.362 294.38,-129.63 292.886,-119.141 286.671,-122.362"/>
<text text-anchor="middle" x="260.93" y="-104.63" font-family="Times,serif" font-size="14.00">graft</text>
</g>
<!-- another branch&#45;&gt;a snake -->
<g id="edge8" class="edge"><title>another branch&#45;&gt;a snake</title>
<path fill="none" stroke="black" d="M305,-152C313.33,-177.26 315.43,-183.61 309.19,-199.57"/>
<polygon fill="black" stroke="black" points="305.896,-198.371 305.16,-208.94 312.326,-201.136 305.896,-198.371"/>
</g>
<!-- another branch&#45;&gt;sweet apples\ngreen apple\nred apple\n -->
<g id="edge9" class="edge"><title>another branch&#45;&gt;sweet apples\ngreen apple\nred apple\n</title>
<path fill="none" stroke="black" d="M305,-152C339.76,-170.06 355.91,-178.46 366.65,-187.62"/>
<polygon fill="black" stroke="black" points="364.458,-190.376 374.02,-194.94 369.391,-185.41 364.458,-190.376"/>
</g>
<!-- root&#45;&gt;trunk -->
<g id="edge10" class="edge"><title>root&#45;&gt;trunk</title>
<path fill="none" stroke="black" d="M245.08,-22.093C245.73,-30.285 245.69,-36.808 244.95,-54.44"/>
<polygon fill="black" stroke="black" points="241.44,-54.6007 244.51,-64.741 248.434,-54.8995 241.44,-54.6007"/>
</g>
<!-- one branch -->
<g id="node1" class="node"><title>one branch</title>
<path fill="lightgrey" stroke="black" stroke-width="0.5" d="M198.167,-152C198.167,-152 123.833,-152 123.833,-152 120.167,-152 116.5,-148.333 116.5,-144.667 116.5,-144.667 116.5,-137.333 116.5,-137.333 116.5,-133.667 120.167,-130 123.833,-130 123.833,-130 198.167,-130 198.167,-130 201.833,-130 205.5,-133.667 205.5,-137.333 205.5,-137.333 205.5,-144.667 205.5,-144.667 205.5,-148.333 201.833,-152 198.167,-152"/>
<text text-anchor="middle" x="161" y="-137.6" font-family="Regular" font-size="13.00">one branch</text>
</g>
<!-- a caterpillar -->
<g id="node2" class="node"><title>a caterpillar</title>
<path fill="lightgrey" stroke="black" stroke-width="0.5" d="M90.6667,-231C90.6667,-231 7.33333,-231 7.33333,-231 3.66667,-231 -8.77076e-15,-227.333 -8.77076e-15,-223.667 -8.77076e-15,-223.667 -8.77076e-15,-216.333 -8.77076e-15,-216.333 -8.77076e-15,-212.667 3.66667,-209 7.33333,-209 7.33333,-209 90.6667,-209 90.6667,-209 94.3333,-209 98,-212.667 98,-216.333 98,-216.333 98,-223.667 98,-223.667 98,-227.333 94.3333,-231 90.6667,-231"/>
<text text-anchor="middle" x="49" y="-216.6" font-family="Regular" font-size="13.00">a caterpillar</text>
</g>
<!-- a nest -->
<g id="node3" class="node"><title>a nest</title>
<path fill="lightgrey" stroke="black" stroke-width="0.5" d="M153.667,-231C153.667,-231 112.333,-231 112.333,-231 108.667,-231 105,-227.333 105,-223.667 105,-223.667 105,-216.333 105,-216.333 105,-212.667 108.667,-209 112.333,-209 112.333,-209 153.667,-209 153.667,-209 157.333,-209 161,-212.667 161,-216.333 161,-216.333 161,-223.667 161,-223.667 161,-227.333 157.333,-231 153.667,-231"/>
<text text-anchor="middle" x="133" y="-216.6" font-family="Regular" font-size="13.00">a nest</text>
</g>
<!-- sour apples -->
<g id="node4" class="node"><title>sour apples</title>
<path fill="lightgrey" stroke="black" stroke-width="0.5" d="M252.667,-231C252.667,-231 175.333,-231 175.333,-231 171.667,-231 168,-227.333 168,-223.667 168,-223.667 168,-216.333 168,-216.333 168,-212.667 171.667,-209 175.333,-209 175.333,-209 252.667,-209 252.667,-209 256.333,-209 260,-212.667 260,-216.333 260,-216.333 260,-223.667 260,-223.667 260,-227.333 256.333,-231 252.667,-231"/>
<text text-anchor="middle" x="214" y="-216.6" font-family="Regular" font-size="13.00">sour apples</text>
</g>
<!-- birds -->
<g id="node5" class="node"><title>birds</title>
<path fill="lightgrey" stroke="black" stroke-width="0.5" d="M150.667,-310C150.667,-310 115.333,-310 115.333,-310 111.667,-310 108,-306.333 108,-302.667 108,-302.667 108,-295.333 108,-295.333 108,-291.667 111.667,-288 115.333,-288 115.333,-288 150.667,-288 150.667,-288 154.333,-288 158,-291.667 158,-295.333 158,-295.333 158,-302.667 158,-302.667 158,-306.333 154.333,-310 150.667,-310"/>
<text text-anchor="middle" x="133" y="-295.6" font-family="Regular" font-size="13.00">birds</text>
</g>
<!-- chirp -->
<g id="node6" class="node"><title>chirp</title>
<path fill="lightgrey" stroke="black" stroke-width="0.5" d="M151.167,-375C151.167,-375 114.833,-375 114.833,-375 111.167,-375 107.5,-371.333 107.5,-367.667 107.5,-367.667 107.5,-360.333 107.5,-360.333 107.5,-356.667 111.167,-353 114.833,-353 114.833,-353 151.167,-353 151.167,-353 154.833,-353 158.5,-356.667 158.5,-360.333 158.5,-360.333 158.5,-367.667 158.5,-367.667 158.5,-371.333 154.833,-375 151.167,-375"/>
<text text-anchor="middle" x="133" y="-360.6" font-family="Regular" font-size="13.00">chirp</text>
</g>
<!-- trunk -->
<g id="node7" class="node"><title>trunk</title>
<path fill="lightgrey" stroke="black" stroke-width="0.5" d="M263.167,-87C263.167,-87 224.833,-87 224.833,-87 221.167,-87 217.5,-83.3333 217.5,-79.6667 217.5,-79.6667 217.5,-72.3333 217.5,-72.3333 217.5,-68.6667 221.167,-65 224.833,-65 224.833,-65 263.167,-65 263.167,-65 266.833,-65 270.5,-68.6667 270.5,-72.3333 270.5,-72.3333 270.5,-79.6667 270.5,-79.6667 270.5,-83.3333 266.833,-87 263.167,-87"/>
<text text-anchor="middle" x="244" y="-72.6" font-family="Regular" font-size="13.00">trunk</text>
</g>
<!-- another branch -->
<g id="node8" class="node"><title>another branch</title>
<path fill="lightgrey" stroke="black" stroke-width="0.5" d="M351.167,-152C351.167,-152 248.833,-152 248.833,-152 245.167,-152 241.5,-148.333 241.5,-144.667 241.5,-144.667 241.5,-137.333 241.5,-137.333 241.5,-133.667 245.167,-130 248.833,-130 248.833,-130 351.167,-130 351.167,-130 354.833,-130 358.5,-133.667 358.5,-137.333 358.5,-137.333 358.5,-144.667 358.5,-144.667 358.5,-148.333 354.833,-152 351.167,-152"/>
<text text-anchor="middle" x="300" y="-137.6" font-family="Regular" font-size="13.00">another branch</text>
</g>
<!-- a snake -->
<g id="node9" class="node"><title>a snake</title>
<path fill="lightgrey" stroke="black" stroke-width="0.5" d="M325.667,-231C325.667,-231 274.333,-231 274.333,-231 270.667,-231 267,-227.333 267,-223.667 267,-223.667 267,-216.333 267,-216.333 267,-212.667 270.667,-209 274.333,-209 274.333,-209 325.667,-209 325.667,-209 329.333,-209 333,-212.667 333,-216.333 333,-216.333 333,-223.667 333,-223.667 333,-227.333 329.333,-231 325.667,-231"/>
<text text-anchor="middle" x="300" y="-216.6" font-family="Regular" font-size="13.00">a snake</text>
</g>
<!-- sweet apples\ngreen apple\nred apple\n -->
<g id="node10" class="node"><title>sweet apples\ngreen apple\nred apple\n</title>
<path fill="lightgrey" stroke="black" stroke-width="0.5" d="M430,-245C430,-245 352,-245 352,-245 346,-245 340,-239 340,-233 340,-233 340,-207 340,-207 340,-201 346,-195 352,-195 352,-195 430,-195 430,-195 436,-195 442,-201 442,-207 442,-207 442,-233 442,-233 442,-239 436,-245 430,-245"/>
<text text-anchor="middle" x="391" y="-230.6" font-family="Regular" font-size="13.00">sweet apples</text>
<text text-anchor="middle" x="391" y="-216.6" font-family="Regular" font-size="13.00">green apple</text>
<text text-anchor="middle" x="391" y="-202.6" font-family="Regular" font-size="13.00">red apple</text>
</g>
<!-- root -->
<g id="node11" class="node"><title>root</title>
<path fill="lightgrey" stroke="black" stroke-width="0.5" d="M258.667,-22C258.667,-22 229.333,-22 229.333,-22 225.667,-22 222,-18.3333 222,-14.6667 222,-14.6667 222,-7.33333 222,-7.33333 222,-3.66667 225.667,5.55112e-16 229.333,5.55112e-16 229.333,5.55112e-16 258.667,5.55112e-16 258.667,5.55112e-16 262.333,5.55112e-16 266,-3.66667 266,-7.33333 266,-7.33333 266,-14.6667 266,-14.6667 266,-18.3333 262.333,-22 258.667,-22"/>
<text text-anchor="middle" x="244" y="-7.6" font-family="Regular" font-size="13.00">root</text>
</g>
</g>
</svg>
