<?xml version="1.0" encoding="UTF-8" standalone="no"?>
<!DOCTYPE svg PUBLIC "-//W3C//DTD SVG 1.1//EN"
 "http://www.w3.org/Graphics/SVG/1.1/DTD/svg11.dtd">
<!-- Generated by graphviz version 2.36.0 (20140111.2315)
 -->
<!-- Title: Sample Pages: 1 -->
<svg width="450pt" height="383pt"
 viewBox="0.00 0.00 450.00 383.00" xmlns="http://www.w3.org/2000/svg" xmlns:xlink="http://www.w3.org/1999/xlink">
<g id="graph0" class="graph" transform="scale(1 1) rotate(0) translate(4 379)">
<title>Sample</title>
<polygon fill="white" stroke="none" points="-4,4 -4,-379 446,-379 446,4 -4,4"/>
<!-- one branch&#45;&gt;a caterpillar -->
<g id="edge1" class="edge"><title>one branch&#45;&gt;a caterpillar</title>
<polygon fill="#9fb6cd" stroke="none" stroke-width="6" points="156.838,-149.234 147.966,-153.26 139.771,-156.988 132.214,-160.441 125.257,-163.646 118.864,-166.626 112.997,-169.407 107.618,-172.014 102.689,-174.472 98.1747,-176.806 94.0365,-179.04 90.2378,-181.2 86.7418,-183.31 83.5117,-185.395 80.511,-187.48 77.7029,-189.587 75.0508,-191.742 72.5174,-193.97 70.0652,-196.294 67.6565,-198.739 65.253,-201.33 65.253,-201.33 67.7973,-198.881 70.3335,-196.583 72.8998,-194.413 75.5349,-192.349 78.2776,-190.367 81.1672,-188.444 84.2431,-186.557 87.5451,-184.682 91.113,-182.795 94.9865,-180.875 99.2051,-178.897 103.808,-176.839 108.835,-174.678 114.325,-172.392 120.316,-169.957 126.849,-167.352 133.961,-164.552 141.691,-161.537 150.078,-158.282 159.162,-154.766 156.838,-149.234"/>
<polygon fill="none" stroke="#9fb6cd" stroke-width="6" points="65.0979,-201.502 62.2866,-212.441 58.392,-208.92 65.0979,-201.502"/>
</g>
<!-- one branch&#45;&gt;a nest -->
<g id="edge2" class="edge"><title>one branch&#45;&gt;a nest</title>
<polygon fill="#9fb6cd" stroke="none" stroke-width="6" points="155.658,-150.126 152.987,-153.868 150.511,-157.349 148.223,-160.59 146.117,-163.612 144.186,-166.436 142.424,-169.082 140.825,-171.57 139.383,-173.923 138.093,-176.159 136.949,-178.3 135.945,-180.364 135.077,-182.371 134.339,-184.341 133.726,-186.292 133.231,-188.242 132.849,-190.212 132.572,-192.219 132.393,-194.286 132.304,-196.432 132.3,-198.68 132.3,-198.68 132.551,-196.451 132.872,-194.343 133.272,-192.337 133.758,-190.414 134.337,-188.554 135.019,-186.736 135.81,-184.938 136.721,-183.14 137.76,-181.318 138.936,-179.453 140.261,-177.522 141.742,-175.505 143.39,-173.382 145.214,-171.133 147.223,-168.737 149.425,-166.175 151.83,-163.428 154.445,-160.475 157.28,-157.297 160.342,-153.874 155.658,-150.126"/>
<polygon fill="none" stroke="#9fb6cd" stroke-width="6" points="132.303,-198.931 137.66,-208.874 132.41,-208.93 132.303,-198.931"/>
</g>
<!-- one branch&#45;&gt;sour apples -->
<g id="edge3" class="edge"><title>one branch&#45;&gt;sour apples</title>
<polygon fill="#9fb6cd" stroke="none" stroke-width="6" points="155.137,-152.897 156.519,-156.662 157.813,-160.149 159.04,-163.385 160.225,-166.394 161.39,-169.201 162.558,-171.83 163.753,-174.304 164.995,-176.645 166.308,-178.874 167.713,-181.012 169.229,-183.081 170.877,-185.102 172.676,-187.098 174.648,-189.095 176.813,-191.118 179.195,-193.192 181.817,-195.344 184.7,-197.6 187.87,-199.987 191.35,-202.53 191.35,-202.53 188.134,-199.665 185.216,-196.991 182.579,-194.482 180.202,-192.111 178.067,-189.855 176.154,-187.687 174.443,-185.583 172.914,-183.515 171.544,-181.458 170.312,-179.383 169.195,-177.26 168.17,-175.059 167.217,-172.749 166.314,-170.301 165.442,-167.684 164.582,-164.87 163.713,-161.831 162.817,-158.542 161.873,-154.974 160.863,-151.103 155.137,-152.897"/>
<polygon fill="none" stroke="#9fb6cd" stroke-width="6" points="191.463,-202.619 202.575,-204.645 199.34,-208.78 191.463,-202.619"/>
</g>
<!-- a nest&#45;&gt;birds -->
<g id="edge4" class="edge"><title>a nest&#45;&gt;birds</title>
<polygon fill="#9fb6cd" stroke="none" stroke-width="6" points="127.324,-230.523 126.648,-234.345 126.025,-237.937 125.458,-241.31 124.947,-244.476 124.494,-247.451 124.099,-250.248 123.764,-252.881 123.489,-255.364 123.276,-257.709 123.126,-259.931 123.04,-262.042 123.019,-264.056 123.063,-265.986 123.175,-267.845 123.353,-269.645 123.601,-271.4 123.916,-273.123 124.301,-274.828 124.755,-276.529 125.28,-278.24 125.28,-278.24 124.974,-276.481 124.738,-274.749 124.572,-273.032 124.476,-271.314 124.451,-269.582 124.497,-267.822 124.615,-266.018 124.807,-264.156 125.072,-262.22 125.411,-260.197 125.827,-258.071 126.319,-255.827 126.889,-253.451 127.539,-250.93 128.268,-248.248 129.079,-245.391 129.972,-242.346 130.949,-239.099 132.009,-235.635 133.156,-231.937 127.324,-230.523"/>
<polygon fill="none" stroke="#9fb6cd" stroke-width="6" points="125.336,-278.41 133.472,-286.244 128.49,-287.9 125.336,-278.41"/>
</g>
<!-- birds&#45;&gt;chirp -->
<g id="edge5" class="edge"><title>birds&#45;&gt;chirp</title>
<polygon fill="#9fb6cd" stroke="none" stroke-width="6" points="128.304,-309.709 128.153,-312.227 128.012,-314.626 127.884,-316.91 127.768,-319.082 127.665,-321.15 127.576,-323.117 127.5,-324.988 127.438,-326.768 127.392,-328.463 127.361,-330.078 127.345,-331.616 127.346,-333.084 127.364,-334.485 127.399,-335.825 127.452,-337.109 127.524,-338.341 127.614,-339.527 127.723,-340.67 127.851,-341.776 128,-342.85 128,-342.85 128.048,-341.769 128.121,-340.664 128.22,-339.53 128.344,-338.361 128.495,-337.152 128.673,-335.897 128.877,-334.592 129.11,-333.231 129.37,-331.809 129.659,-330.32 129.978,-328.759 130.326,-327.121 130.704,-325.4 131.112,-323.592 131.552,-321.69 132.024,-319.691 132.527,-317.589 133.064,-315.379 133.633,-313.055 134.236,-310.611 128.304,-309.709"/>
<polygon fill="none" stroke="#9fb6cd" stroke-width="6" points="128.041,-343.095 134.859,-352.099 129.68,-352.96 128.041,-343.095"/>
<text text-anchor="middle" x="104.41" y="-321.55" font-family="Regular" font-size="12.00" fill="darkslategray">singing</text>
</g>
<!-- trunk&#45;&gt;one branch -->
<g id="edge6" class="edge"><title>trunk&#45;&gt;one branch</title>
<polygon fill="#9fb6cd" stroke="none" stroke-width="6" points="242.484,-84.0447 236.997,-85.2207 231.943,-86.3213 227.286,-87.3719 222.99,-88.3979 219.021,-89.425 215.343,-90.479 211.923,-91.5859 208.728,-92.7716 205.726,-94.0613 202.886,-95.4794 200.179,-97.0493 197.573,-98.7934 195.037,-100.733 192.536,-102.892 190.035,-105.292 187.497,-107.957 184.886,-110.913 182.164,-114.187 179.294,-117.804 176.24,-121.79 176.24,-121.79 179.588,-118.052 182.719,-114.675 185.668,-111.637 188.469,-108.918 191.157,-106.497 193.767,-104.352 196.335,-102.459 198.896,-100.795 201.488,-99.3347 204.151,-98.0526 206.926,-96.9239 209.854,-95.9245 212.976,-95.0319 216.333,-94.2239 219.963,-93.4793 223.904,-92.7766 228.194,-92.0946 232.869,-91.4115 237.964,-90.7058 243.516,-89.9553 242.484,-84.0447"/>
<polygon fill="none" stroke="#9fb6cd" stroke-width="6" points="176.173,-121.874 174.003,-132.958 169.91,-129.67 176.173,-121.874"/>
<text text-anchor="middle" x="184.09" y="-88.734" font-family="Regular" font-size="12.00" fill="darkslategray">grow</text>
</g>
<!-- trunk&#45;&gt;another branch -->
<g id="edge7" class="edge"><title>trunk&#45;&gt;another branch</title>
<polygon fill="#9fb6cd" stroke="none" stroke-width="6" points="241.943,-89.8077 246.279,-91.1944 250.272,-92.4834 253.946,-93.6934 257.322,-94.8428 260.421,-95.95 263.266,-97.0334 265.879,-98.1113 268.285,-99.2023 270.506,-100.325 272.568,-101.499 274.496,-102.744 276.316,-104.082 278.051,-105.533 279.726,-107.12 281.362,-108.863 282.982,-110.783 284.605,-112.898 286.252,-115.228 287.943,-117.789 289.7,-120.6 289.7,-120.6 288.233,-117.623 286.801,-114.892 285.383,-112.384 283.957,-110.077 282.502,-107.949 280.995,-105.98 279.417,-104.15 277.747,-102.44 275.967,-100.832 274.06,-99.3068 272.007,-97.8466 269.793,-96.4312 267.401,-95.0402 264.811,-93.6524 262.006,-92.2465 258.967,-90.8009 255.672,-89.2941 252.103,-87.7046 248.238,-86.0111 244.057,-84.1923 241.943,-89.8077"/>
<polygon fill="none" stroke="#9fb6cd" stroke-width="6" points="289.778,-120.752 299.041,-127.214 294.38,-129.63 289.778,-120.752"/>
<text text-anchor="middle" x="257.93" y="-91.225" font-family="Regular" font-size="12.00" fill="darkslategray">graft</text>
</g>
<!-- another branch&#45;&gt;a snake -->
<g id="edge8" class="edge"><title>another branch&#45;&gt;a snake</title>
<polygon fill="#9fb6cd" stroke="none" stroke-width="6" points="302.151,-152.939 303.575,-156.513 304.886,-159.825 306.084,-162.895 307.168,-165.744 308.139,-168.395 308.996,-170.867 309.74,-173.184 310.37,-175.366 310.889,-177.437 311.297,-179.419 311.594,-181.336 311.78,-183.213 311.856,-185.074 311.82,-186.943 311.672,-188.843 311.409,-190.797 311.03,-192.827 310.534,-194.952 309.921,-197.193 309.19,-199.57 309.19,-199.57 310.206,-197.296 311.094,-195.131 311.854,-193.054 312.491,-191.041 313.007,-189.069 313.402,-187.119 313.679,-185.168 313.84,-183.198 313.886,-181.19 313.821,-179.126 313.648,-176.987 313.371,-174.755 312.993,-172.409 312.52,-169.929 311.954,-167.295 311.299,-164.486 310.558,-161.479 309.734,-158.254 308.83,-154.789 307.849,-151.061 302.151,-152.939"/>
<polygon fill="none" stroke="#9fb6cd" stroke-width="6" points="309.111,-199.754 309.983,-211.014 305.16,-208.94 309.111,-199.754"/>
</g>
<!-- another branch&#45;&gt;sweet apples\ngreen apple\nred apple\n -->
<g id="edge9" class="edge"><title>another branch&#45;&gt;sweet apples\ngreen apple\nred apple\n</title>
<polygon fill="#9fb6cd" stroke="none" stroke-width="6" points="303.617,-154.662 308.803,-157.086 313.713,-159.384 318.358,-161.563 322.747,-163.63 326.891,-165.593 330.799,-167.46 334.483,-169.237 337.952,-170.932 341.218,-172.553 344.289,-174.107 347.177,-175.602 349.893,-177.044 352.446,-178.443 354.847,-179.804 357.106,-181.135 359.235,-182.445 361.243,-183.741 363.141,-185.03 364.94,-186.321 366.65,-187.62 366.65,-187.62 365.053,-186.18 363.364,-184.738 361.572,-183.287 359.668,-181.818 357.643,-180.324 355.487,-178.796 353.192,-177.227 350.748,-175.607 348.146,-173.93 345.376,-172.188 342.429,-170.371 339.296,-168.472 335.967,-166.483 332.432,-164.395 328.683,-162.2 324.71,-159.89 320.503,-157.458 316.052,-154.893 311.349,-152.19 306.383,-149.338 303.617,-154.662"/>
<polygon fill="none" stroke="#9fb6cd" stroke-width="6" points="366.925,-187.893 377.72,-191.215 374.02,-194.94 366.925,-187.893"/>
</g>
<!-- root&#45;&gt;trunk -->
<g id="edge10" class="edge"><title>root&#45;&gt;trunk</title>
<polygon fill="#9fb6cd" stroke="none" stroke-width="6" points="242.089,-22.3198 242.293,-23.5182 242.485,-24.6906 242.666,-25.8573 242.837,-27.0286 243,-28.2147 243.154,-29.4257 243.301,-30.6718 243.442,-31.9628 243.577,-33.3085 243.708,-34.7187 243.835,-36.2028 243.959,-37.7703 244.081,-39.4307 244.202,-41.1933 244.323,-43.0675 244.444,-45.0626 244.566,-47.188 244.69,-49.4531 244.818,-51.8673 244.95,-54.44 244.95,-54.44 245.293,-51.8865 245.612,-49.4887 245.906,-47.2366 246.177,-45.1207 246.425,-43.1311 246.652,-41.258 246.859,-39.4915 247.046,-37.822 247.214,-36.2395 247.364,-34.7343 247.497,-33.2968 247.614,-31.9173 247.716,-30.5864 247.803,-29.2946 247.876,-28.0327 247.937,-26.7917 247.986,-25.5624 248.024,-24.3361 248.052,-23.1036 248.071,-21.8662 242.089,-22.3198"/>
<polygon fill="none" stroke="#9fb6cd" stroke-width="6" points="244.937,-54.7501 249.755,-64.9651 244.51,-64.741 244.937,-54.7501"/>
</g>
<!-- one branch -->
<g id="node1" class="node"><title>one branch</title>
<path fill="#fafafa" stroke="black" stroke-width="0.5" d="M198.167,-152C198.167,-152 123.833,-152 123.833,-152 120.167,-152 116.5,-148.333 116.5,-144.667 116.5,-144.667 116.5,-137.333 116.5,-137.333 116.5,-133.667 120.167,-130 123.833,-130 123.833,-130 198.167,-130 198.167,-130 201.833,-130 205.5,-133.667 205.5,-137.333 205.5,-137.333 205.5,-144.667 205.5,-144.667 205.5,-148.333 201.833,-152 198.167,-152"/>
<text text-anchor="middle" x="161" y="-137.6" font-family="Regular" font-size="13.00">one branch</text>
</g>
<!-- a caterpillar -->
<g id="node2" class="node"><title>a caterpillar</title>
<path fill="#fafafa" stroke="black" stroke-width="0.5" d="M90.6667,-231C90.6667,-231 7.33333,-231 7.33333,-231 3.66667,-231 -8.77076e-15,-227.333 -8.77076e-15,-223.667 -8.77076e-15,-223.667 -8.77076e-15,-216.333 -8.77076e-15,-216.333 -8.77076e-15,-212.667 3.66667,-209 7.33333,-209 7.33333,-209 90.6667,-209 90.6667,-209 94.3333,-209 98,-212.667 98,-216.333 98,-216.333 98,-223.667 98,-223.667 98,-227.333 94.3333,-231 90.6667,-231"/>
<text text-anchor="middle" x="49" y="-216.6" font-family="Regular" font-size="13.00">a caterpillar</text>
</g>
<!-- a nest -->
<g id="node3" class="node"><title>a nest</title>
<path fill="#fafafa" stroke="black" stroke-width="0.5" d="M153.667,-231C153.667,-231 112.333,-231 112.333,-231 108.667,-231 105,-227.333 105,-223.667 105,-223.667 105,-216.333 105,-216.333 105,-212.667 108.667,-209 112.333,-209 112.333,-209 153.667,-209 153.667,-209 157.333,-209 161,-212.667 161,-216.333 161,-216.333 161,-223.667 161,-223.667 161,-227.333 157.333,-231 153.667,-231"/>
<text text-anchor="middle" x="133" y="-216.6" font-family="Regular" font-size="13.00">a nest</text>
</g>
<!-- sour apples -->
<g id="node4" class="node"><title>sour apples</title>
<path fill="#fafafa" stroke="black" stroke-width="0.5" d="M252.667,-231C252.667,-231 175.333,-231 175.333,-231 171.667,-231 168,-227.333 168,-223.667 168,-223.667 168,-216.333 168,-216.333 168,-212.667 171.667,-209 175.333,-209 175.333,-209 252.667,-209 252.667,-209 256.333,-209 260,-212.667 260,-216.333 260,-216.333 260,-223.667 260,-223.667 260,-227.333 256.333,-231 252.667,-231"/>
<text text-anchor="middle" x="214" y="-216.6" font-family="Regular" font-size="13.00">sour apples</text>
</g>
<!-- birds -->
<g id="node5" class="node"><title>birds</title>
<path fill="#fafafa" stroke="black" stroke-width="0.5" d="M150.667,-310C150.667,-310 115.333,-310 115.333,-310 111.667,-310 108,-306.333 108,-302.667 108,-302.667 108,-295.333 108,-295.333 108,-291.667 111.667,-288 115.333,-288 115.333,-288 150.667,-288 150.667,-288 154.333,-288 158,-291.667 158,-295.333 158,-295.333 158,-302.667 158,-302.667 158,-306.333 154.333,-310 150.667,-310"/>
<text text-anchor="middle" x="133" y="-295.6" font-family="Regular" font-size="13.00">birds</text>
</g>
<!-- chirp -->
<g id="node6" class="node"><title>chirp</title>
<path fill="#fafafa" stroke="black" stroke-width="0.5" d="M151.167,-375C151.167,-375 114.833,-375 114.833,-375 111.167,-375 107.5,-371.333 107.5,-367.667 107.5,-367.667 107.5,-360.333 107.5,-360.333 107.5,-356.667 111.167,-353 114.833,-353 114.833,-353 151.167,-353 151.167,-353 154.833,-353 158.5,-356.667 158.5,-360.333 158.5,-360.333 158.5,-367.667 158.5,-367.667 158.5,-371.333 154.833,-375 151.167,-375"/>
<text text-anchor="middle" x="133" y="-360.6" font-family="Regular" font-size="13.00">chirp</text>
</g>
<!-- trunk -->
<g id="node7" class="node"><title>trunk</title>
<path fill="#fafafa" stroke="black" stroke-width="0.5" d="M263.167,-87C263.167,-87 224.833,-87 224.833,-87 221.167,-87 217.5,-83.3333 217.5,-79.6667 217.5,-79.6667 217.5,-72.3333 217.5,-72.3333 217.5,-68.6667 221.167,-65 224.833,-65 224.833,-65 263.167,-65 263.167,-65 266.833,-65 270.5,-68.6667 270.5,-72.3333 270.5,-72.3333 270.5,-79.6667 270.5,-79.6667 270.5,-83.3333 266.833,-87 263.167,-87"/>
<text text-anchor="middle" x="244" y="-72.6" font-family="Regular" font-size="13.00">trunk</text>
</g>
<!-- another branch -->
<g id="node8" class="node"><title>another branch</title>
<path fill="#fafafa" stroke="black" stroke-width="0.5" d="M351.167,-152C351.167,-152 248.833,-152 248.833,-152 245.167,-152 241.5,-148.333 241.5,-144.667 241.5,-144.667 241.5,-137.333 241.5,-137.333 241.5,-133.667 245.167,-130 248.833,-130 248.833,-130 351.167,-130 351.167,-130 354.833,-130 358.5,-133.667 358.5,-137.333 358.5,-137.333 358.5,-144.667 358.5,-144.667 358.5,-148.333 354.833,-152 351.167,-152"/>
<text text-anchor="middle" x="300" y="-137.6" font-family="Regular" font-size="13.00">another branch</text>
</g>
<!-- a snake -->
<g id="node9" class="node"><title>a snake</title>
<path fill="#fafafa" stroke="black" stroke-width="0.5" d="M325.667,-231C325.667,-231 274.333,-231 274.333,-231 270.667,-231 267,-227.333 267,-223.667 267,-223.667 267,-216.333 267,-216.333 267,-212.667 270.667,-209 274.333,-209 274.333,-209 325.667,-209 325.667,-209 329.333,-209 333,-212.667 333,-216.333 333,-216.333 333,-223.667 333,-223.667 333,-227.333 329.333,-231 325.667,-231"/>
<text text-anchor="middle" x="300" y="-216.6" font-family="Regular" font-size="13.00">a snake</text>
</g>
<!-- sweet apples\ngreen apple\nred apple\n -->
<g id="node10" class="node"><title>sweet apples\ngreen apple\nred apple\n</title>
<path fill="#fafafa" stroke="black" stroke-width="0.5" d="M430,-245C430,-245 352,-245 352,-245 346,-245 340,-239 340,-233 340,-233 340,-207 340,-207 340,-201 346,-195 352,-195 352,-195 430,-195 430,-195 436,-195 442,-201 442,-207 442,-207 442,-233 442,-233 442,-239 436,-245 430,-245"/>
<text text-anchor="middle" x="391" y="-230.6" font-family="Regular" font-size="13.00">sweet apples</text>
<text text-anchor="middle" x="391" y="-216.6" font-family="Regular" font-size="13.00">green apple</text>
<text text-anchor="middle" x="391" y="-202.6" font-family="Regular" font-size="13.00">red apple</text>
</g>
<!-- root -->
<g id="node11" class="node"><title>root</title>
<path fill="#fafafa" stroke="black" stroke-width="0.5" d="M258.667,-22C258.667,-22 229.333,-22 229.333,-22 225.667,-22 222,-18.3333 222,-14.6667 222,-14.6667 222,-7.33333 222,-7.33333 222,-3.66667 225.667,5.55112e-16 229.333,5.55112e-16 229.333,5.55112e-16 258.667,5.55112e-16 258.667,5.55112e-16 262.333,5.55112e-16 266,-3.66667 266,-7.33333 266,-7.33333 266,-14.6667 266,-14.6667 266,-18.3333 262.333,-22 258.667,-22"/>
<text text-anchor="middle" x="244" y="-7.6" font-family="Regular" font-size="13.00">root</text>
</g>
</g>
</svg>
